<?xml version="1.0" encoding="utf-8"?>
<!-- Generator: Adobe Illustrator 27.5.0, SVG Export Plug-In . SVG Version: 6.00 Build 0)  -->
<svg version="1.1" xmlns="http://www.w3.org/2000/svg" xmlns:xlink="http://www.w3.org/1999/xlink" x="0px" y="0px"
	 viewBox="0 0 500 500" style="enable-background:new 0 0 500 500;" xml:space="preserve">
<g id="BACKGROUND">
	<rect style="fill:#FFFFFF00;" width="500" height="500"/>
</g>
<g id="OBJECTS" style="fill:#BFD3C15F;">
	<g>
		<path d="M372.195,100.397c-1.498,2.065-1.11,4.901-1.11,4.901s2.817-0.511,4.315-2.576c1.498-2.065,1.11-4.901,1.11-4.901
			S373.693,98.332,372.195,100.397z"/>
		<path d="M354.887,99.918c0,0,7.229,0.864,12.414-3.034c5.185-3.898,6.363-11.082,6.363-11.082s-7.229-0.864-12.414,3.034
			C356.065,92.733,354.887,99.918,354.887,99.918z"/>
		<path d="M267.159,154.808c1.282-5.946-2.293-11.762-2.293-11.762s-5.654,3.825-6.937,9.771
			c-1.282,5.946,2.293,11.762,2.293,11.762S265.877,160.754,267.159,154.808z"/>
		<path d="M433.73,226.622c0,0,2.05,4.084,5.885,5.449c3.836,1.365,8.005-0.505,8.005-0.505s-2.05-4.084-5.885-5.449
			C437.899,224.752,433.73,226.622,433.73,226.622z"/>
		<path d="M461.06,172.311c0,0-4.619,0.915-7.029,4.35c-1.761,2.51-1.854,5.664-1.776,7.185l-9.423,4.429
			c1.713-1.718,3.632-4.216,4.414-7.317c1.553-6.159-1.968-12.358-1.968-12.358s-6.04,3.788-7.593,9.947
			c-1.196,4.743,0.612,9.496,1.509,11.438l-19.658,9.239l-7.968,0.208c2.048-0.902,4.416-2.345,6.119-4.61
			c3.655-4.862,2.845-11.64,2.845-11.64s-6.737,1.105-10.392,5.967c-2.699,3.59-2.962,8.218-2.916,10.397l-11.806,0.308l3.523-8.486
			l0.216-0.521l20.943-20.612l5.223-2.371c0.944,1.171,3.173,3.536,6.238,4.235c4.125,0.94,8.199-1.499,8.199-1.499
			s-2.615-3.964-6.74-4.904c-0.842-0.192-1.681-0.238-2.484-0.198l4.22-1.916c1.271,0.161,4.822,0.401,7.672-1.42
			c3.536-2.259,4.648-6.835,4.648-6.835s-4.62-0.912-8.156,1.347c-2.771,1.771-4.05,4.956-4.475,6.254l-14.301,5.094
			c1.702-1.274,5.57-4.608,6.77-9.367c1.553-6.159-1.968-12.358-1.968-12.358s-6.04,3.788-7.593,9.947
			c-1.377,5.458,1.228,10.938,1.839,12.117l-0.087,0.031l-0.153,0.055l-0.171,0.152l-5.814,5.194
			c0.612-1.469,1.191-3.549,0.835-5.706c-0.663-4.017-4.319-6.758-4.319-6.758s-2.58,3.771-1.916,7.788
			c0.489,2.962,2.602,5.226,3.68,6.214l-13.562,12.117l-1.386-2.339c0.865-0.969,4.95-5.857,4.95-11.757
			c0-6.596-5.119-11.943-5.119-11.943s-5.119,5.347-5.119,11.943c0,1.297,0.202,2.542,0.52,3.711l-5.491-9.265l16.257-13.213
			l0.196-0.159l0.021-0.213l0.027-0.268c1.334,0.561,4.658,1.703,7.9,0.758c4.18-1.219,6.622-5.451,6.622-5.451
			s-4.334-2.256-8.514-1.037c-2.826,0.824-4.853,3.022-5.873,4.362l1.132-11.504c0.069,0.137,0.112,0.214,0.112,0.214
			s4.197-2.608,5.292-6.874c1.094-4.265-1.329-8.572-1.329-8.572s-4.198,2.609-5.292,6.874c-0.829,3.233,0.361,6.486,0.986,7.873
			l-2.117,13.236l-5.576,3.853c1.493-2.156,3.445-5.749,3.445-9.823c0-6.596-5.119-11.943-5.119-11.943s-5.119,5.347-5.119,11.943
			c0,5.294,3.292,9.776,4.595,11.342l-9.632,6.656c-0.467-1.118-1.147-2.283-2.153-3.245c-2.943-2.813-7.512-2.81-7.512-2.81
			s0.202,4.565,3.146,7.378c2.011,1.922,4.779,2.529,6.332,2.72l5.081,9.778c-1.663-1.274-3.981-2.612-6.684-2.951
			c-5.499-0.69-10.492,3.019-10.492,3.019s3.922,4.827,9.421,5.517c3.985,0.5,7.694-1.306,9.44-2.341l3.94,7.584l-5.065,10.211
			l-21.978,9.283l-2.987-12.332c1.334-0.841,3.251-2.365,4.209-4.61c1.556-3.648-0.013-7.813-0.013-7.813s-4.093,1.749-5.649,5.397
			c-0.057,0.134-0.102,0.27-0.151,0.405l-0.005-0.022c-0.905-3.729-1.751-7.469-2.593-11.209l6.47-15.76l10.908-7.98
			c0,0.002,0.002,0.01,0.002,0.01s3.718-0.881,5.569-3.739c1.85-2.858,1.132-6.612,1.132-6.612s-3.719,0.881-5.569,3.739
			c-1.459,2.253-1.321,5.056-1.197,6.144l-7.893,4.298c0.84-1.133,1.601-2.51,1.959-4.094c1.035-4.58-1.681-9.096-1.681-9.096
			s-4.394,2.91-5.428,7.49c-0.712,3.152,0.352,6.273,1.085,7.914l-0.431,0.235l-0.251,0.137l-0.177,0.356l-5.73,11.514
			c-0.627-2.81-1.252-5.62-1.893-8.429l7.728-18.977l10.782-6.757c0.818,0.645,3.944,2.899,7.55,2.729
			c4.204-0.199,7.457-3.622,7.457-3.622s-3.562-3.102-7.765-2.903c-0.524,0.025-1.033,0.1-1.522,0.212l8.897-5.576
			c0,0.002,0,0.011,0,0.011s3.84-0.128,6.232-2.577c2.392-2.449,2.431-6.29,2.431-6.29s-3.84,0.128-6.232,2.577
			c-1.918,1.963-2.322,4.818-2.408,5.874l-26.569,14.976l-0.176,0.099l-0.159,0.259l-10.484,17.128l-4.296-1.913
			c1.027-0.864,2.407-2.319,2.958-4.252c0.923-3.241-0.844-6.585-0.844-6.585s-3.264,1.911-4.187,5.153
			c-0.504,1.77-0.205,3.567,0.17,4.837l-2.965-1.32l-0.331-0.147l-0.187,0.023l-9.264,1.141l8.88,1.094l8.964,5.161l1.212,9.766
			c-1.817-2.304-4.643-5.096-8.429-6.457c-7.066-2.54-14.766,0.885-14.766,0.885s3.757,7.543,10.824,10.083
			c4.948,1.778,10.197,0.633,12.905-0.214l1.499,12.08l2.866,21.611l-0.692,0.762l-22.119,24.385l-0.681-3.811
			c1.17-0.646,3.063-1.946,4.022-4.003c1.448-3.102,0.213-6.74,0.213-6.74s-3.581,1.391-5.028,4.493
			c-0.085,0.182-0.159,0.366-0.226,0.55l-2.617-14.636l2.059-2.671c2.281,0.963,6.639,2.351,10.987,1.266
			c6.294-1.57,10.179-7.727,10.179-7.727s-6.321-3.613-12.615-2.043c-1.007,0.251-1.944,0.628-2.822,1.07l4.247-5.511l0.183-0.237
			l0.034-0.178l2.432-12.87l-4.518,11.958l-11.647,13.348l-3.675-8.106c1.439-0.656,3.835-2.039,5.166-4.421
			c1.986-3.554,0.838-7.977,0.838-7.977s-4.368,1.339-6.355,4.893c-0.769,1.376-1.066,2.879-1.144,4.208l-0.687-1.514l1.231-25.366
			c0.624-0.793,3.007-4.086,2.805-7.868c-0.232-4.347-3.795-7.691-3.795-7.691s-3.186,3.704-2.954,8.052
			c0.194,3.64,2.717,6.569,3.535,7.428l-1.758,16.823c-0.487-1.94-1.425-4.316-3.243-6.175c-2.251-2.301-5.322-3.272-7.39-3.683
			l6.421-20.666l19.443-18.637c1.137,1.878,3.271,4.688,6.482,6.093c5.077,2.222,10.918,0.082,10.918,0.082
			s-2.392-5.742-7.469-7.963c-2.447-1.071-5.065-1.125-7.128-0.898l2.27-2.176l17.061-3.433l0.227-0.046l0.141-0.099l4.541-3.185
			c1.473,1.221,5.63,4.261,10.538,4.261c6.139,0,11.115-4.764,11.115-4.764s-4.977-4.764-11.115-4.764
			c-1.38,0-2.695,0.248-3.914,0.621l8.776-6.155c1.411-0.071,4.579-0.465,6.884-2.503c3.05-2.697,3.43-7.25,3.43-7.25
			s-4.566-0.181-7.616,2.516c-2.849,2.519-3.367,6.654-3.424,7.19l-6.326,3.877c0.823-0.99,1.583-2.2,1.995-3.616
			c1.219-4.179-1.037-8.514-1.037-8.514s-4.232,2.442-5.451,6.622c-0.925,3.173,0.151,6.431,0.723,7.818l-9.979,6.116l-0.23,0.032
			c0.872-0.987,1.708-2.244,2.133-3.737c1.115-3.916-1.02-7.955-1.02-7.955s-3.943,2.309-5.058,6.225
			c-0.626,2.199-0.227,4.437,0.243,5.977l-13.62,1.874l-0.39,0.053l-0.372,0.315l-18.536,15.691l5.539-13.648l0.065-0.159
			l0.02-0.071l2.605-9.576c2.024,0.076,6.928-0.075,10.695-2.907c4.862-3.655,5.967-10.392,5.967-10.392s-6.778-0.81-11.641,2.845
			c-1.268,0.953-2.275,2.116-3.079,3.314l2.418-8.887l12.632-4.129l0.05-0.016c1.002,1.698,3.988,6.127,8.776,7.847
			c5.978,2.149,12.491-0.749,12.491-0.749s-3.178-6.381-9.156-8.53c-4.562-1.64-9.426-0.343-11.479,0.365l5.06-12.355
			c1.09-0.584,4.216-2.49,5.496-5.711c1.563-3.932-0.222-8.332-0.222-8.332s-4.318,1.975-5.881,5.907
			c-1.563,3.932,0.222,8.332,0.222,8.332s0.016-0.008,0.024-0.011l-5.897,12.232l-6.163,1.208c1.026-1.257,3.364-4.542,3.364-8.41
			c0-4.951-3.842-8.964-3.842-8.964s-3.842,4.013-3.842,8.964c0,4.037,2.553,7.448,3.496,8.571l-6.652,1.304l-0.104,0.02
			c0.558-2.641,0.949-6.683-0.588-10.448c-2.564-6.277-9.514-9.377-9.514-9.377s-2.794,7.078-0.23,13.356
			c2.098,5.137,7.129,8.143,8.889,9.066l-6.063,18.319l-7.124-23.503l-0.066-0.219l-0.103-0.127l-5.891-7.266
			c0.866-1.01,3.573-4.499,3.573-8.66c0-4.951-3.842-8.964-3.842-8.964s-3.842,4.013-3.842,8.964c0,1.947,0.596,3.744,1.318,5.214
			l-7.003-8.637l13.881,20.405l7.179,28.581l-10.516,23.092l0.078,0.034l-0.068,0.181l-8.638,22.74l-20.77,10.197l0.761-6.511
			l11.769-16.801l0.349-0.499l0.046-0.138l2.922-8.814c1.587,0.283,4.182,0.471,6.522-0.626c3.686-1.729,5.333-5.991,5.333-5.991
			s-4.33-1.46-8.016,0.269c-0.858,0.402-1.601,0.944-2.242,1.535l3.037-9.162c0.789-0.723,2.886-2.882,3.265-5.713
			c0.469-3.502-1.869-6.704-1.869-6.704s-3.098,2.475-3.566,5.977c-0.35,2.618,0.868,5.068,1.505,6.138l-9.061,15.549
			c-0.029-1.632-0.302-3.428-1.083-5.131c-2.287-4.986-8.011-7.254-8.011-7.254s-2.016,5.817,0.27,10.804
			c1.427,3.111,4.191,5.164,6.069,6.268l-9.181,9.602l-6.212-17.647l5.25-14.446l0.065-0.179c1.805,0.244,7.483,0.713,12.015-2.192
			c5.461-3.501,7.171-10.578,7.171-10.578s-7.144-1.4-12.605,2.101c-1.01,0.648-1.89,1.418-2.656,2.243l5.097-9.984l5.508-3.486
			c1.383,1.191,4.004,3.045,7.158,3.287c4.692,0.36,8.775-2.99,8.775-2.99s-3.525-3.933-8.217-4.293
			c-0.479-0.037-0.949-0.027-1.412,0.007l9.854-6.237l-5.446,2.861c0.899-1.063,1.963-2.685,2.223-4.623
			c0.469-3.502-1.869-6.705-1.869-6.705s-3.098,2.475-3.567,5.977c-0.36,2.693,0.936,5.202,1.555,6.221l-6.536,3.434
			c-1.093,0.451-1.998,0.971-2.625,1.379l-5.3,2.784c1.234-2.388,2.514-5.844,2.193-9.557c-0.589-6.823-6.362-11.897-6.362-11.897
			s-4.818,5.988-4.229,12.811c0.466,5.4,4.17,9.692,5.699,11.253l-7.201,11.952l-3.044-19.197l4.255-19.034
			c1.235,0.431,5.183,1.586,8.808,0.186c4.363-1.686,6.592-6.438,6.592-6.438s-4.845-2.02-9.208-0.334
			c-2.94,1.136-4.906,3.66-5.879,5.189l1.703-7.618l12.862-7.24c1.067,0.093,3.306,0.109,5.128-1.077
			c2.484-1.617,3.242-4.856,3.242-4.856s-3.269-0.617-5.753,1c-2.484,1.617-3.243,4.856-3.243,4.856s0.083,0.015,0.22,0.033
			l-7.825,3.815c0.884-1.064,1.899-2.649,2.152-4.537c0.469-3.502-1.869-6.704-1.869-6.704s-3.098,2.475-3.567,5.977
			c-0.35,2.614,0.864,5.06,1.502,6.133l-3.592,1.751l-0.207,0.101l-0.072,0.252l-7.111,24.82l-9.539-13.442l-0.289-0.407
			l-0.349-0.041c1.343-0.889,3.857-2.873,4.869-5.828c1.41-4.119-0.643-8.552-0.643-8.552s-4.34,2.244-5.75,6.363
			c-1.081,3.159-0.128,6.494,0.376,7.882l-5.39-0.637c0.161-0.397,2.139-5.433,0.392-10.013c-1.82-4.771-6.999-7.227-6.999-7.227
			s-2.228,5.281-0.408,10.052c1.674,4.389,6.179,6.813,6.893,7.174l-5.421-0.64l11.154,3.329l3.144,5.223
			c-1.22-0.931-2.756-1.802-4.535-2.165c-4.603-0.939-9.063,1.872-9.063,1.872s3.003,4.334,7.605,5.272
			c3.357,0.685,6.629-0.622,8.159-1.382l4.714,7.829l0.161-0.105l1.144,11.622c-1.431-2.275-4.093-5.657-8.038-7.308
			c-6.255-2.618-13.357,0.114-13.357,0.114s3.039,6.977,9.293,9.595c4.851,2.031,10.197,0.846,12.359,0.21l0.926,9.405l-3.598,8.331
			l-1.666-4.734l-0.288-0.819l-0.531-0.417l-18.834-14.82c0.504-1.129,1.869-4.684,0.861-8.14c-1.219-4.18-5.451-6.622-5.451-6.622
			s-2.256,4.334-1.037,8.514c0.335,1.15,0.901,2.162,1.542,3.034l-5.219-4.107l-2.437-17.475c0.913-0.231,4.743-1.355,6.84-4.415
			c2.392-3.49,1.623-8.176,1.623-8.176s-4.648,0.973-7.04,4.463c-1.327,1.937-1.68,4.239-1.732,5.907l-1.738-12.467
			c0.361-0.959,1.023-3.194,0.329-5.33c-0.916-2.819-3.846-4.393-3.846-4.393s-1.446,2.996-0.53,5.815
			c0.854,2.629,3.458,4.174,3.806,4.371l1.286,19.496c-1.059-1.688-2.829-3.875-5.394-5.072c-4.567-2.131-9.922-0.314-9.922-0.314
			s2.048,5.272,6.615,7.402c3.34,1.559,7.094,1.006,8.874,0.596l0.689,10.446l0.032,0.489l0.434,0.395l12.172,11.1
			c-1.875-0.673-4.085-1.14-6.401-0.932c-6.312,0.568-10.988,5.927-10.988,5.927s5.558,4.438,11.87,3.87
			c4.52-0.407,8.19-3.263,9.916-4.856l9.608,8.762l9.482,34.83l-7.747,40.505l-15.448,26.01l-6.629-7.751l8.35-21.207l0.216-0.548
			l0.015-0.085l1.967-11.536c1.35,0.073,5.164,0.058,8.062-2.11c3.582-2.679,4.406-7.63,4.406-7.63s-4.983-0.608-8.564,2.071
			c-1.616,1.208-2.666,2.877-3.337,4.347l3.58-20.99c0.825-1.04,2.464-3.462,2.464-6.285c0-3.771-2.927-6.829-2.927-6.829
			s-2.927,3.057-2.927,6.829c0,2.79,1.6,5.186,2.434,6.245l-3.481,10.095c-0.092-1.717-0.506-4.054-1.898-6.007
			c-2.537-3.559-7.356-4.474-7.356-4.474s-0.705,4.854,1.832,8.412c1.945,2.729,5.225,3.9,6.652,4.3l-6.047,17.535l-2.92-3.119
			c0.411-0.512,2.873-3.742,2.65-7.469c-0.243-4.064-3.594-7.17-3.594-7.17s-2.957,3.483-2.714,7.547
			c0.134,2.239,1.211,4.184,2.151,5.482l-3.969-4.24l0.363-19.054l-2.224,9.62c-0.239-1.568-0.802-3.516-2.1-5.12
			c-2.641-3.265-7.316-3.862-7.316-3.862s-0.393,4.696,2.248,7.961c1.981,2.448,5.105,3.396,6.544,3.717l-1.311,5.67
			c-1.705-0.808-3.905-1.511-6.264-1.369c-5.195,0.312-9.164,4.597-9.164,4.597s4.454,3.779,9.648,3.467
			c2.618-0.157,4.923-1.324,6.567-2.442l8.426,12.479l-7.442,13.01l-11.808-13.807l0.285,0.396l-7.29-9.97l12.265-32.955
			c1.437,0.81,5.934,3.036,10.595,2.143c5.653-1.082,9.396-6.348,9.396-6.348s-5.423-3.51-11.076-2.428
			c-3.869,0.741-6.842,3.44-8.334,5.07l1.443-3.877l13.569-13.97l-6.381,3.167c0.829-0.986,1.611-2.226,2.002-3.682
			c1.055-3.932-1.141-7.939-1.141-7.939s-3.908,2.368-4.963,6.301c-0.746,2.78,0.131,5.59,0.71,7.003l-4.902,2.432l-8.362-25.215
			l-0.223-0.674l-0.313-0.306c2.228-1.389,5.918-4.208,7.604-8.458c2.501-6.303-0.363-13.353-0.363-13.353s-6.919,3.168-9.419,9.471
			c-1.34,3.378-1.137,6.96-0.662,9.567l-12.002-11.715l5.527-15.804l0.104-0.296l-0.002-0.011c1.879-0.642,5.982-2.391,8.298-6.015
			c3.07-4.805,1.83-11.083,1.83-11.083s-6.218,1.512-9.288,6.317c-1.02,1.596-1.558,3.351-1.83,4.988l-3.274-19.143l0.663,7.694
			c-0.922-1.294-2.717-3.355-5.278-4.21c-3.862-1.288-7.993,0.665-7.993,0.665s2.131,4.042,5.994,5.33
			c2.984,0.995,6.119,0.058,7.395-0.421l1.346,15.619l-6.149,13.776l-4.795-4.68c1.071-1.341,3.267-4.546,3.267-8.29
			c0-4.951-3.842-8.964-3.842-8.964s-3.842,4.013-3.842,8.964c0,1.992,0.624,3.826,1.368,5.314l-5.174-5.05l-5.993-15.376
			c0.041,0.02,0.067,0.032,0.067,0.032s1.785-4.4,0.222-8.332c-1.563-3.932-5.881-5.907-5.881-5.907s-1.785,4.4-0.222,8.332
			c1.148,2.889,3.779,4.717,5.096,5.486l2.867,9.39c-0.857-1.278-1.932-2.52-3.285-3.536c-5.185-3.898-12.414-3.034-12.414-3.034
			s1.178,7.184,6.363,11.083c4.284,3.22,9.95,3.19,11.796,3.083l27.713,31.459l6.99,27.975l-13.936,30.257l-7.103-15.809
			l-0.247-0.55l1.666-14.47c1.934,0.787,5.077,1.684,8.252,0.972c5.126-1.15,8.39-6.061,8.39-6.061s-5.049-3.046-10.175-1.896
			c-2.529,0.567-4.601,2.049-6.055,3.406l1.61-13.981l0.079-0.683l-0.303-0.409l-1.331-1.799c1.387-1.04,3.297-2.836,4.147-5.318
			c1.41-4.119-0.643-8.552-0.643-8.552s-4.34,2.245-5.75,6.363c-0.443,1.294-0.544,2.619-0.474,3.828l-7.653-10.348
			c0.46-1.135,1.218-3.549,0.544-5.915c-0.923-3.241-4.187-5.153-4.187-5.153s-1.767,3.344-0.844,6.585
			c0.778,2.732,3.212,4.514,3.96,5.008l9.348,16.363l-6.356,26.857l-6.401-5.385c1.864-1.719,5.181-5.353,6.01-10.089
			c1.169-6.679-3.066-13.001-3.066-13.001s-6.132,4.507-7.301,11.186c-0.604,3.452,0.236,6.8,1.188,9.238l-11.761-9.894
			l-3.788-4.263l1.205-5.054c2.362,0.703,6.611,1.537,10.628,0.093c5.978-2.149,9.156-8.53,9.156-8.53s-6.514-2.898-12.491-0.749
			c-2.568,0.923-4.616,2.627-6.121,4.271l2.742-11.501l0.062-0.259l-0.035-0.203l-2.265-7.97c0.355-0.17,3.901-1.939,5.224-5.288
			c1.393-3.527-0.215-7.467-0.215-7.467s-3.866,1.778-5.259,5.305c-0.721,1.825-0.636,3.757-0.389,5.2l-7.838-27.582
			c0.384-1.109,1.464-4.814,0.056-8.064c-1.677-3.872-6.252-5.618-6.252-5.618s-1.857,4.532-0.18,8.403
			c1.677,3.872,6.252,5.618,6.252,5.618s0.011-0.028,0.028-0.071l2.661,11.72c-0.598-1.064-1.416-2.151-2.537-2.994
			c-3.262-2.453-7.811-1.909-7.811-1.909s0.741,4.52,4.004,6.973c2.579,1.939,5.952,2.005,7.256,1.947l3.341,14.716
			c-0.913-1.838-2.257-3.82-4.225-5.299c-4.862-3.655-11.64-2.845-11.64-2.845s1.105,6.737,5.967,10.392
			c4.021,3.023,9.341,2.992,11.065,2.89l0.456,2.01l-5.557,18.809l-10.338-11.636l-4.912-33.865
			c0.827-1.006,2.797-3.735,2.797-6.953c0-4.072-3.16-7.372-3.16-7.372s-3.16,3.3-3.16,7.372c0,2.872,1.569,5.354,2.495,6.571
			l0.465,6.999c-0.28-1.885-1.187-5.834-4.041-8.532c-3.864-3.653-9.832-3.614-9.832-3.614s0.298,5.96,4.162,9.613
			c3.687,3.485,9.276,3.61,9.782,3.614l0.837,12.592c-0.118-1.335-0.526-3.387-1.859-4.989c-2.157-2.59-5.915-3.016-5.915-3.016
			s-0.262,3.773,1.895,6.363c2.157,2.59,5.915,3.016,5.915,3.016s0.022-0.337-0.002-0.87l0.936,14.079l0.031,0.475l0.376,0.502
			l15.675,20.956l0.054,0.073l0.24,0.239l7.484,7.456c-2.02,0.483-4.682,1.475-6.691,3.529c-2.434,2.489-3.292,5.901-3.597,7.953
			l-7.754-12.922c0.059-0.889,0.15-4.39-1.833-6.987c-2.288-2.998-6.469-3.653-6.469-3.653s-0.472,4.206,1.815,7.204
			c1.819,2.383,4.827,3.284,5.987,3.554l9.786,18.874l-3.064,6.759c0.091-1.6-0.052-3.811-1.144-5.765
			c-1.986-3.554-6.355-4.893-6.355-4.893s-1.148,4.423,0.838,7.977c1.538,2.752,4.497,4.172,5.757,4.674l-1.797,3.963
			l-11.592-13.285l-4.573-19.122l0.863,7.123c-0.241-0.467-0.526-0.924-0.874-1.352c-2.374-2.915-6.561-3.435-6.561-3.435
			s-0.338,4.205,2.036,7.12c1.893,2.324,4.931,3.123,6.088,3.353l0.855,7.055l0.03,0.249l0.211,0.274l5.754,7.467
			c-1.594-1.291-3.588-2.499-5.915-3.079c-6.294-1.57-12.615,2.043-12.615,2.043s3.884,6.157,10.179,7.727
			c5.274,1.315,10.551-1.002,12.128-1.79l2.503,3.248l-2.104,11.772c-0.097-0.719-0.283-1.46-0.616-2.173
			c-1.448-3.102-5.029-4.493-5.029-4.493s-1.234,3.638,0.213,6.74c1.16,2.486,3.686,3.87,4.645,4.323l-1.426,7.977l-22.119-24.385
			l-0.692-0.763l3.454-26.047l0.112-0.845l-0.093-0.418c-0.576-2.579-1.166-5.157-1.753-7.735c2.86-0.714,7.523-2.387,10.689-6.136
			c4.845-5.737,4.32-14.148,4.32-14.148s-8.38,0.891-13.225,6.628c-1.707,2.021-2.738,4.371-3.37,6.571
			c-0.184-0.829-0.376-1.657-0.555-2.486l3.399-17.356c1.435,0.372,4.543,0.924,7.346-0.302c3.793-1.66,5.579-5.948,5.579-5.948
			s-4.363-1.598-8.155,0.061c-1.948,0.853-3.363,2.397-4.283,3.699l1.172-5.984l-0.042,0.144l4.178-14.85l-3.05,6.788
			c0.531-2.37,0.785-5.314-0.042-8.221c-1.85-6.495-8.39-10.325-8.39-10.325s-3.542,6.701-1.692,13.196
			c1.582,5.554,6.581,9.15,8,10.078l-1.148,2.554l-0.015,0.033l-0.027,0.113l-4.507,18.557l-3.293-15.423l-0.095-0.447l-0.324-0.183
			l-0.467-0.263c0.733-1.626,1.826-4.775,1.107-7.96c-1.035-4.58-5.428-7.49-5.428-7.49s-2.716,4.516-1.681,9.096
			c0.354,1.568,1.104,2.934,1.935,4.061l-20.556-11.587c-0.02-0.547-0.233-3.959-2.428-6.206c-2.392-2.449-6.232-2.577-6.232-2.577
			s0.029,2.375,1.203,4.58l-0.23-0.13l0.242,0.151c0.317,0.592,0.712,1.172,1.217,1.688c1.736,1.777,4.228,2.33,5.468,2.501
			l8.757,5.488c-0.204-0.025-0.41-0.049-0.619-0.058c-4.203-0.199-7.765,2.903-7.765,2.903s3.254,3.423,7.457,3.622
			c3.261,0.154,6.127-1.673,7.252-2.502l9.484,5.943l0.5,6.931c-0.848-1.053-2.359-2.566-4.399-3.161
			c-3.269-0.953-6.659,0.812-6.659,0.812s1.911,3.31,5.179,4.262c2.386,0.695,4.829-0.055,5.979-0.512l0.865,11.988
			c0.44,6.618,1.095,13.213,1.648,19.825l-5.565,22.977l-8.827-3.728c0.311-1.547,0.524-3.958-0.424-6.182
			c-1.556-3.648-5.649-5.397-5.649-5.397s-1.569,4.165-0.013,7.813c0.245,0.574,0.558,1.096,0.902,1.577l-7.967-3.365l-5.065-10.211
			l9.836-18.931c2.007,0.449,6.624,1.133,10.666-0.84c5.34-2.606,7.646-8.863,7.646-8.863s-6.351-2.031-11.691,0.575
			c-2.108,1.029-3.736,2.626-4.943,4.183l-0.04-0.044l-5.152-5.641c1.229-0.632,3.657-2.139,4.824-4.659
			c1.599-3.452,0.215-7.492,0.215-7.492s-3.976,1.558-5.575,5.011c-0.973,2.102-0.84,4.417-0.588,5.91l-3.112-3.408l-3.272-14.455
			c0.004,0.003,0.014,0.009,0.014,0.009s1.606-2.855,0.881-5.682c-0.725-2.827-3.507-4.556-3.507-4.556s-1.606,2.855-0.881,5.681
			c0.589,2.296,2.535,3.868,3.245,4.377l1.343,8.141c-1.162-1.57-3.636-4.366-7.143-5.389c-4.982-1.453-10.149,1.236-10.149,1.236
			s2.911,5.045,7.893,6.498c4.034,1.176,8.186-0.362,9.622-0.99l0.907,5.497l0.018,0.108l0.094,0.133l7.535,10.627l-3.675,6.2
			c-0.06-6.542-5.114-11.827-5.114-11.827s-5.119,5.347-5.119,11.943c0,4.54,2.424,8.487,3.936,10.508l-1.469,2.478l-9.065-13.095
			l-0.188-0.271l-0.224-0.102l-1.262-0.572c1.13-1.153,2.729-3.173,3.146-5.697c0.664-4.017-1.916-7.788-1.916-7.788
			s-3.656,2.742-4.319,6.759c-0.356,2.156,0.223,4.235,0.835,5.704l-7.233-3.281c0.826-1.705,2.919-6.74,1.656-11.75
			c-1.553-6.159-7.593-9.947-7.593-9.947s-3.521,6.199-1.968,12.358c0.923,3.66,3.424,6.473,5.307,8.161l-8.595-3.898
			c0.05-0.009,0.084-0.015,0.084-0.015s-1.113-4.576-4.648-6.835c-3.536-2.259-8.155-1.347-8.155-1.347s1.112,4.576,4.648,6.835
			c3.073,1.964,6.962,1.532,7.927,1.385l3.757,2.096c-1.48-0.427-3.351-0.706-5.238-0.276c-4.125,0.94-6.74,4.904-6.74,4.904
			s4.074,2.439,8.199,1.499c3.437-0.783,5.819-3.658,6.52-4.598l14.36,8.01l8.766,15.034l-0.116,0.195l0.441,1.062l3.523,8.486
			l-10.344-0.27c-0.004-2.325-0.402-6.585-2.921-9.935c-3.655-4.862-10.392-5.967-10.392-5.967s-0.81,6.778,2.845,11.64
			c1.423,1.893,3.311,3.211,5.089,4.121l-8.395-0.219l-15.192-7.14c-0.736-0.432-1.599-0.858-2.549-1.198l-0.53-0.249
			c0.867-1.835,2.809-6.718,1.58-11.589c-1.553-6.159-7.593-9.947-7.593-9.947s-3.521,6.199-1.968,12.358
			c0.839,3.328,2.986,5.956,4.784,7.676l-9.803-4.607c0.092-1.439,0.066-4.752-1.767-7.365c-2.41-3.435-7.029-4.35-7.029-4.35
			s-0.713,4.655,1.697,8.09c1.433,2.043,3.643,3.19,5.203,3.788l10.693,5.56c-4.478,0.457-7.962,3.787-7.962,3.787
			s4.013,3.842,8.964,3.842c3.441,0,6.425-1.854,7.928-2.986l9.401,4.888c-2.377-0.236-5.238-0.13-7.952,0.978
			c-6.277,2.564-9.377,9.514-9.377,9.514s7.078,2.794,13.356,0.23c4.96-2.026,7.927-6.778,8.958-8.688l25.709,3.899l29.532,15.445
			l24.818,30.13l0.222,0.27l0.593,0.495l9.991,8.337l0.186,0.494l0.268-0.115l7.001,5.842l0.4,0.28l3.66,2.608l-19.033-2.531
			l-0.638-0.085l-0.229,0.009l-0.409,0.016l0.002-0.005l-30.946-10.974l-3.455-3.854c1.87-1.605,6.614-6.206,7.679-12.415
			c1.333-7.775-3.62-15.112-3.62-15.112s-7.115,5.268-8.448,13.043c-0.755,4.403,0.506,8.663,1.742,11.532l-18.484-20.617
			l-0.536-0.598c0.88-1.876,2.77-6.709,1.554-11.533c-1.553-6.159-7.593-9.947-7.593-9.947s-3.521,6.199-1.968,12.358
			c0.975,3.866,3.717,6.797,5.624,8.443l-19.667-5.418c0.107-1.251,0.21-4.846-1.747-7.637c-2.41-3.435-7.029-4.35-7.029-4.35
			s-0.713,4.655,1.697,8.09c0.876,1.249,2.045,2.162,3.177,2.822l-11.1-3.058l5.171,2.239c-1.393-0.574-6.631-2.467-11.576-0.803
			c-5.765,1.941-8.932,7.988-8.932,7.988s6.18,2.901,11.945,0.96c5.758-1.938,8.924-7.972,8.931-7.987l11.025,4.774
			c-1.722-0.088-3.678,0.081-5.547,0.844c-5.023,2.051-7.503,7.613-7.503,7.613s5.664,2.236,10.687,0.184
			c3.715-1.517,6.035-4.949,6.993-6.636l8.833,3.825l-10.435,5.551l-12.548,0.089l12.751,2.182l0.244,0.042l0.347-0.153
			l13.576-5.966l10.386,13.024c-1.766-1.199-4.084-2.352-6.717-2.62c-5.937-0.604-11.218,3.514-11.218,3.514
			s4.344,5.097,10.28,5.701c4.65,0.473,8.886-1.944,10.509-3.017l9.973,12.506l0.473,0.593l0.96,0.45l11.171,5.234l-13.789,0.535
			l-0.433,0.017l-0.106,0.025l-4.526,1.049l-19.063-8.053l-6.421-10.676l3.829,10.025c-0.988-0.605-2.15-1.118-3.439-1.332
			c-4.139-0.687-8.028,1.968-8.028,1.968s2.822,3.77,6.962,4.457c3.265,0.542,6.366-0.992,7.534-1.666l13.287,6.515l-20.699,4.799
			l-13.709-7.33c1.006-2.074,3.584-8.253,2.033-14.403c-1.902-7.544-9.299-12.182-9.299-12.182s-4.313,7.592-2.41,15.135
			c1.031,4.089,3.673,7.315,5.88,9.42l-7.447-3.982c0.617-0.164,0.993-0.308,0.993-0.308s-1.895-4.311-5.771-5.918
			c-3.876-1.607-8.265,0.099-8.265,0.099s1.895,4.311,5.771,5.918c2.436,1.01,5.073,0.711,6.698,0.35l22.162,13.814
			c-1.973-0.032-4.142,0.222-6.227,1.073c-6.277,2.564-9.377,9.514-9.377,9.514s7.078,2.794,13.356,0.23
			c5.714-2.333,8.785-8.284,9.293-9.337l12.172-0.966c-1.278,0.66-2.568,1.562-3.625,2.791c-3.401,3.958-3.086,9.807-3.086,9.807
			s5.829-0.569,9.23-4.528c2.416-2.812,2.955-6.569,3.065-8.514l9.68-0.768l13.441,0.522c-2.441,1.855-6.931,5.908-8.482,11.605
			c-2.169,7.969,2.257,16.112,2.257,16.112s7.943-4.776,10.112-12.745c1.666-6.12-0.554-12.328-1.675-14.886l17.006,0.66l0.38,0.178
			l0.066-0.161l3.784,0.147l44.656,9.867l10.793,7.693l14.83,31.012c0.07,3.918,0.37,8.552,1.251,12.328
			c1.918,8.222-0.574,29.868-0.574,29.868l-1.141,29.05c0,0-2.122,8.5-2.944,14.529c-0.822,6.029-4.43,9.592-4.43,9.592
			s-8.185,4.24-11.117,5.114c-3.657,1.091-11.506,1.721-14.839,3.579c-2.798,1.56-9.102,9.017-9.102,9.017l12.852-4.12l14.127,0.265
			c0,0,2.438,2.297,1.816,3.672c-1.288,2.846-9.315,8.329-9.315,8.329s15.247-1.745,19.805-3.913
			c3.749-1.783,7.209-6.474,11.328-6.994c1.979-0.25,8.364,0.369,8.364,0.369s2.03,4.993,1.587,6.642
			c-0.757,2.814-8.028,8.449-8.028,8.449l16.195-4.233l8.302,0.919l9.563,0.708c0,0-6.64-3.522-8.53-5.143
			c-1.617-1.387-3.699-3.734-3.084-5.089c1.095-2.413,7.208-2.561,10.375-2.163c4.237,0.532,16.292,5.136,16.292,5.136l10.447,2.354
			c0,0-6.722-3.598-8.93-4.856c-2.258-1.287-8.93-5.326-8.93-5.326s8.704-0.69,11.587-0.388c3.492,0.365,13.635,3.365,13.635,3.365
			s-10.542-8.021-20.836-9.4c-4.789-0.642-16.444-3.701-16.842-9.477c-0.404-5.859-3.992-34.949-3.992-34.949l-1.096-14.799
			c0,0-0.606-20.233,1.038-27.633c0.236-1.062,0.492-2.099,0.755-3.121l9.017-23.946l15.614-14.866l44.655-9.867l3.785-0.147
			l0.066,0.161l0.38-0.178l7.29-0.283c0.395,2.314,1.983,9.358,7.212,13.749c6.324,5.311,15.572,4.709,15.572,4.709
			s-1.004-9.214-7.328-14.525c-2.86-2.402-6.312-3.588-9.242-4.174l19.155-0.743l11.184,0.888c0.188,2.053,0.839,5.358,3.019,7.894
			c3.401,3.958,9.23,4.528,9.23,4.528s0.315-5.849-3.086-9.807c-0.721-0.839-1.553-1.518-2.413-2.079l11.291,0.896
			c1.027,1.906,3.996,6.667,8.961,8.695c6.277,2.563,13.356-0.23,13.356-0.23s-3.099-6.95-9.376-9.513
			c-2.328-0.951-4.764-1.163-6.911-1.056l22.373-13.946c1.545,0.398,4.48,0.879,7.17-0.237c3.876-1.607,5.771-5.918,5.771-5.918
			s-4.389-1.706-8.265-0.099c-3.876,1.607-5.771,5.918-5.771,5.918s0.242,0.092,0.65,0.212l-6.481,3.465
			c2.059-2.098,4.322-5.1,5.257-8.809c1.902-7.544-2.41-15.135-2.41-15.135s-7.397,4.639-9.299,12.182
			c-1.502,5.954,0.863,11.923,1.929,14.18l-15.061,8.053l-20.699-4.799l14.545-7.132c0.97,0.586,4.258,2.36,7.733,1.783
			c4.139-0.687,6.961-4.457,6.961-4.457s-3.889-2.655-8.028-1.968c-2.171,0.36-3.973,1.567-5.202,2.634l4.135-10.826l-6.421,10.677
			l-19.063,8.052l-4.526-1.049l-0.107-0.025l-0.433-0.017l-13.789-0.535l11.171-5.234l0.96-0.45l0.473-0.593l8.684-10.89
			c1.913,1.163,6.892,3.76,12.222,3.012c6.803-0.955,11.578-7.008,11.578-7.008s-6.256-4.506-13.059-3.552
			c-2.735,0.384-5.133,1.593-7.034,2.901l10.823-13.571l13.576,5.966l0.347,0.153l0.244-0.042l12.75-2.182l-12.548-0.089
			l-10.435-5.551l10.23-4.43c0.921,1.647,3.261,5.192,7.053,6.741c5.023,2.051,10.687-0.184,10.687-0.184s-2.48-5.561-7.503-7.613
			c-2.003-0.818-4.102-0.95-5.909-0.818l15.468-6.698l-9.993,2.753c1.238-0.671,2.56-1.638,3.528-3.017
			c2.41-3.435,1.697-8.09,1.697-8.09s-4.619,0.914-7.029,4.349c-2.017,2.875-1.847,6.593-1.738,7.733l-21.168,5.831
			c1.895-1.674,4.49-4.533,5.434-8.275c1.553-6.16-1.968-12.358-1.968-12.358s-6.04,3.788-7.593,9.947
			c-1.227,4.864,0.707,9.739,1.576,11.58l-0.334,0.372l-19.534,21.789c1.291-2.861,2.783-7.453,1.927-12.197
			c-1.401-7.763-8.561-12.969-8.561-12.969s-4.889,7.38-3.489,15.143c1.147,6.36,6.155,10.998,7.93,12.469l-2.859,3.189
			l-30.946,10.973l0.002,0.005l-0.409-0.016l-0.229-0.009l-0.638,0.085l-19.033,2.531l3.659-2.608l0.401-0.28l7.001-5.842
			l0.268,0.114l0.186-0.494l9.991-8.337l0.593-0.495l0.222-0.27l24.818-30.13l29.053-15.24l0.479-0.205l26.948-4.087l0.279-0.042
			l0.068-0.035c1.138,2.044,4.067,6.508,8.83,8.453c6.277,2.564,13.356-0.23,13.356-0.23s-3.099-6.95-9.376-9.514
			c-2.966-1.211-6.102-1.222-8.594-0.901l9.844-5.119c1.423,1.108,4.522,3.14,8.127,3.14c4.951,0,8.964-3.842,8.964-3.842
			s-3.715-3.544-8.402-3.816l9.781-5.086c1.236-0.334,4.612-1.464,6.555-4.233C461.772,176.965,461.06,172.311,461.06,172.311z
			 M240.962,279.853l-9.215-6.973l-2.835-3.258l-4.888-3.297l-33.913-19.11l5.495-9.196l3.97-3.007
			c-1.007,1.257-2.42,3.452-2.575,6.039c-0.243,4.064,2.714,7.548,2.714,7.548s3.351-3.106,3.594-7.17
			c0.207-3.467-1.908-6.502-2.537-7.323l2.522-1.91c1.029,0.902,3.262,2.558,5.965,2.72c3.729,0.224,6.926-2.488,6.926-2.488
			s-2.849-3.076-6.578-3.3c-0.929-0.056-1.825,0.071-2.647,0.292l0.164-0.124l0.123-0.266l3.551-11.449l-4.758,6.505
			c0.553-1.481,1.004-3.439,0.66-5.457c-0.706-4.139-4.492-6.947-4.492-6.947s-2.64,3.904-1.934,8.043
			c0.568,3.328,3.124,5.792,4.104,6.631l-0.102,0.139l-9.841,4.752l1.414-14.039l0.058-0.577l-0.201-0.356l-2.719-4.813
			c1.733-0.611,4.387-1.875,6.082-4.253c2.691-3.775,1.943-8.923,1.943-8.923s-5.111,0.971-7.802,4.746
			c-1.23,1.725-1.738,3.733-1.931,5.409l-2.844-5.034l-0.688-11.439l-0.574,9.54c-0.856-1.193-2.204-2.654-4.065-3.421
			c-3.476-1.432-7.405,0.104-7.405,0.104s1.706,3.859,5.181,5.291c2.269,0.935,4.725,0.605,6.161,0.263l0.073,0.174l5.531,13.208
			l-0.967,4.709c-0.51-1.253-1.201-2.507-2.15-3.634c-3.954-4.696-10.804-5.434-10.804-5.434s-0.439,6.875,3.514,11.571
			c2.308,2.741,5.595,4.128,7.938,4.813l-1.227,5.976l-6.587,7.259l-7.246-4.981l-4.598-9.62l1.872-23.803l4.426-16.547l0.121-0.452
			l-0.184-0.307l-2.358-3.929c1.914-0.261,5.783-1.111,8.477-3.866c1.996-2.041,2.931-4.703,3.372-6.729l13.451,13.401l6.316,18.497
			l0.101,0.295l0.415,0.696l6.037,10.114v0l5.609,9.397l0.285,0.397l23.538,37.64L240.962,279.853z M326.146,243.275
			c0.195-1.627,0.164-3.521-0.481-5.36c-1.637-4.672-6.591-7.188-6.591-7.188s-2.298,5.058-0.661,9.73
			c1.246,3.556,4.408,5.858,5.85,6.758l-0.845,1.767l-7.246,4.981l-6.587-7.259l-3.695-18.001l4.354-10.396
			c1.33,0.12,4.724,0.205,7.411-1.623c3.417-2.324,4.383-6.859,4.383-6.859s-4.573-0.768-7.99,1.556
			c-1.12,0.762-1.973,1.761-2.618,2.761l-0.376-6.256c0.733-0.861,2.918-3.709,2.918-7.099c0-4.071-3.16-7.372-3.16-7.372
			s-3.16,3.301-3.16,7.372c0,3.33,2.112,6.142,2.882,7.056l-0.43,7.141l-4.855,8.592c0.119-2.507-0.137-5.412-1.342-8.158
			c-3.018-6.876-10.8-10.108-10.8-10.108s-2.891,7.916,0.127,14.792c2.264,5.159,7.21,8.266,9.539,9.497l1.331,13.223l-9.841-4.752
			l-11.268-15.406l7.65,16.538c-2.018-0.085-4.44,0.143-6.684,1.22c-5.137,2.468-7.386,8.455-7.386,8.455s6.079,1.986,11.216-0.481
			c2.852-1.37,4.81-3.822,5.991-5.735l9.152,6.93l5.495,9.196l-25.964,9.592l-19.602,13.542l0.07-21.13l0.006-1.803l16.733-33.498
			l0.53-1.06l0.09-0.772l2.731-23.371l26.25-14.966l1.254-0.715l0.033-0.106c0.548,1.666,1.436,3.489,2.895,4.981
			c2.833,2.896,6.966,3.689,8.757,3.903l-0.548,5.247l-0.014,0.136l0.065,0.245l4.426,16.547l1.871,23.803L326.146,243.275z"/>
		<path d="M124.276,118.591c0,0,2.81-5.913,0.975-11.45c-1.835-5.537-7.62-8.601-7.62-8.601s-2.81,5.913-0.975,11.449
			C118.491,115.527,124.276,118.591,124.276,118.591z"/>
		<path d="M117.74,165.644c-5.499,0.69-9.422,5.517-9.422,5.517s4.993,3.709,10.492,3.019c5.499-0.69,9.421-5.517,9.421-5.517
			S123.239,164.954,117.74,165.644z"/>
	</g>
</g>
</svg>
